<?xml version="1.0" encoding="UTF-8"?>
<svg xmlns="http://www.w3.org/2000/svg" xmlns:xlink="http://www.w3.org/1999/xlink" version="1.1" viewBox="0 0 128 210">
  <defs>
    <style>
      .cls-1 {
        fill: none;
      }

      .cls-2 {
        fill: #fff;
      }

      .cls-3 {
        clip-path: url(#clippath);
      }
    </style>
    <clipPath id="clippath">
      <path class="cls-1" d="M83.47,145.39c-17,6.75-37.8,4.12-51.89-7.82-15.55-12.75-20.8-33.83-20.6-53.24-.14-15.88,2.59-32.44,12.18-45.48,17.68-25.33,57.57-27.4,78.02-4.51,11.15,12.03,15.4,28.73,15.8,44.78,1.5,26.26-7.01,55.64-33.3,66.18l-.22.09Z"/>
    </clipPath>
  </defs>
  <!-- Generator: Adobe Illustrator 28.7.1, SVG Export Plug-In . SVG Version: 1.2.0 Build 142)  -->
  <g>
    <g id="Layer_1">
      <path class="cls-2" d="M64.24,160.61c-14.12,0-28.1-4.68-38.53-13.52C4.2,129.45,1.26,100.25,1.42,84.42c-.2-22.26,4.63-40.25,14.35-53.48,9.87-14.14,26.11-22.89,44.56-24,18.62-1.12,35.96,5.69,47.58,18.69,14.69,15.85,18.23,37.41,18.61,52.7.67,11.71-.06,29.17-7.33,45.79-6.79,15.52-17.55,26.32-31.97,32.11l-.26.1c-7.25,2.88-15.01,4.28-22.73,4.28ZM64.28,8.25c-1.28,0-2.57.04-3.86.12-18.01,1.08-33.86,9.61-43.48,23.41C7.39,44.76,2.66,62.47,2.85,84.42c-.16,15.59,2.72,44.31,23.77,61.57,15.75,13.35,39.78,16.97,59.81,9.02l.25-.1c14.06-5.64,24.56-16.19,31.19-31.35,7.16-16.36,7.87-33.58,7.21-45.16-.37-15.07-3.84-36.26-18.24-51.8-10.52-11.78-25.87-18.34-42.57-18.34Z"/>
      <g class="cls-3">
        <g>
          <rect class="cls-2" x="9.64" y="7.54" width="21.77" height="21.77"/>
          <rect class="cls-2" x="31.41" y="29.31" width="21.77" height="21.77"/>
          <rect class="cls-2" x="53.18" y="7.54" width="21.77" height="21.77"/>
          <rect class="cls-2" x="9.64" y="51.08" width="21.77" height="21.77"/>
          <rect class="cls-2" x="53.18" y="51.08" width="21.77" height="21.77"/>
          <rect class="cls-2" x="31.41" y="72.85" width="21.77" height="21.77"/>
          <rect class="cls-2" x="9.64" y="94.62" width="21.77" height="21.77"/>
          <rect class="cls-2" x="53.18" y="94.62" width="21.77" height="21.77"/>
          <rect class="cls-2" x="74.95" y="29.31" width="21.77" height="21.77"/>
          <rect class="cls-2" x="96.72" y="7.54" width="21.77" height="21.77"/>
          <rect class="cls-2" x="96.72" y="51.08" width="21.77" height="21.77"/>
          <rect class="cls-2" x="74.95" y="72.85" width="21.77" height="21.77"/>
          <rect class="cls-2" x="96.72" y="94.62" width="21.77" height="21.77"/>
          <rect class="cls-2" x="31.41" y="116.39" width="21.77" height="21.77"/>
          <rect class="cls-2" x="9.64" y="138.16" width="21.77" height="21.77"/>
          <rect class="cls-2" x="53.18" y="138.16" width="21.77" height="21.77"/>
          <rect class="cls-2" x="74.95" y="116.39" width="21.77" height="21.77"/>
          <rect class="cls-2" x="96.72" y="138.16" width="21.77" height="21.77"/>
        </g>
      </g>
      <g>
        <path class="cls-2" d="M21.89,202.23c-.26-.82-1.1-3.48-2.51-7.98-1.41-4.5-2.55-7.98-3.42-10.44-.3-.89-.62-1.54-.94-1.96-.32-.42-.86-.68-1.62-.79-.24-.04-.42-.11-.53-.19-.12-.09-.18-.17-.18-.26,0-.11.07-.19.21-.26.14-.06.33-.09.57-.06.19.02.57.06,1.12.13.55.06,1.19.1,1.93.1.52,0,.97-.01,1.36-.03.39-.02.71-.04.97-.06,1.17-.09,2.09-.13,2.78-.13.19,0,.34.03.45.1.11.07.16.14.16.23,0,.19-.22.32-.65.39-.8.09-1.36.25-1.7.49-.33.24-.5.57-.5,1,0,.3.06.67.19,1.1.47,1.68,1.14,3.92,1.99,6.7.85,2.78,1.58,5.05,2.19,6.8.19.56.35.84.45.84.09,0,.19-.2.32-.62,2.03-6.75,3.16-11.01,3.4-12.75.04-.22.06-.52.06-.91,0-.8-.21-1.42-.62-1.86-.41-.44-1.06-.71-1.94-.79-.24-.02-.42-.07-.55-.15s-.19-.16-.19-.24.06-.16.19-.23c.13-.06.31-.1.55-.1,1.1,0,2.01.04,2.72.11.71.08,1.14.11,1.29.11.71,0,1.33-.03,1.85-.08.52-.05.83-.09.94-.11h.16c.41,0,.62.11.62.32,0,.17-.23.31-.68.42-.54.09-1.04.38-1.51.89-.46.51-.84,1.17-1.12,1.99-.84,2.4-1.76,5.27-2.75,8.63-.99,3.36-2.16,7.42-3.5,12.19-.06.26-.19.39-.39.39s-.32-.12-.39-.36l-.81-2.56Z"/>
        <path class="cls-2" d="M34.12,204.46c-.13-.06-.19-.15-.19-.26,0-.09.06-.17.18-.26.12-.09.3-.14.53-.16.88-.09,1.51-.34,1.88-.76.37-.42.57-1.07.62-1.96.06-1.4.1-4.19.1-8.35,0-5.01-.03-8-.1-8.97-.02-.91-.22-1.55-.6-1.93-.38-.38-1-.62-1.86-.73-.24-.02-.42-.08-.55-.16s-.19-.17-.19-.26c0-.11.07-.19.19-.26.13-.07.31-.1.55-.1.54,0,1.08.03,1.62.1.95.09,1.76.13,2.43.13,1.17,0,2.72-.05,4.66-.16.78-.06,1.46-.1,2.04-.1,1.12,0,2.17.11,3.14.32.54.13.86.58.97,1.36.15,1.47.29,3.04.42,4.73v.07c0,.45-.11.68-.32.68-.15,0-.29-.17-.42-.52-.6-1.73-1.34-3.12-2.2-4.18-.86-1.06-2.02-1.59-3.46-1.59-1.04,0-1.76.22-2.19.66-.42.44-.64,1.1-.66,1.96-.06,2.98-.1,5.2-.1,6.67,0,.5.11.85.32,1.05.22.21.58.31,1.1.31.91-.02,1.51-.05,1.81-.1,1.55-.19,2.47-1.24,2.75-3.14.02-.24.08-.42.16-.55.09-.13.17-.19.26-.19s.16.07.21.19c.05.13.08.31.08.55,0,.47-.05,1.34-.16,2.59l-.06,1.1c0,.45.08,1.71.23,3.79v.1c0,.17-.03.31-.08.4-.05.1-.12.15-.21.15s-.17-.05-.26-.16c-.09-.11-.14-.27-.16-.49-.3-2.09-1.21-3.19-2.72-3.3-.63-.04-1.25-.06-1.88-.06-.52,0-.89.11-1.1.32-.22.22-.32.59-.32,1.13,0,2.94.04,5.23.13,6.89.04.84.28,1.5.71,1.97.43.47,1.18.71,2.23.71,1.53,0,2.9-.41,4.11-1.25,1.21-.83,2.23-1.86,3.08-3.09.32-.45.58-.68.78-.68.13,0,.19.12.19.36,0,.13-.03.31-.1.55-.37,1.36-.7,2.37-.99,3.04s-.68,1.15-1.17,1.46c-.49.3-1.16.45-2.02.45-2.31,0-4.2-.04-5.66-.13-.8-.07-1.8-.1-3.01-.1-.67,0-1.48.04-2.43.13-.22.02-.47.04-.76.07-.29.02-.63.03-1.02.03-.22,0-.39-.03-.52-.1Z"/>
        <path class="cls-2" d="M53.35,204.46c-.13-.06-.19-.15-.19-.26,0-.09.06-.17.19-.26s.31-.15.55-.19c.58-.11,1.05-.39,1.41-.84.36-.45.63-1.21.83-2.27s.3-2.54.32-4.44l.03-3.01c0-3.71-.04-6.69-.13-8.93-.04-.93-.27-1.66-.68-2.19-.41-.53-1.06-.87-1.94-1.02-.24-.04-.42-.11-.53-.19-.12-.09-.18-.17-.18-.26s.06-.16.18-.23c.12-.06.3-.1.53-.1h4.69c.35,0,.62.06.83.19.2.13.4.36.6.68,2.37,4.19,5.31,9.17,8.8,14.95.24.37.41.55.52.55s.16-.19.16-.58c.06-2.78.1-4.7.1-5.76l-.03-2.72c-.02-2.03-.26-3.57-.71-4.61-.45-1.05-1.27-1.7-2.46-1.96-.24-.04-.42-.11-.55-.19-.13-.09-.19-.16-.19-.23,0-.21.25-.32.74-.32.6,0,1.32.04,2.14.13.73.09,1.29.13,1.68.13.43,0,1.14-.07,2.14-.19.15,0,.38-.02.68-.06h.13c.37,0,.55.11.55.32,0,.09-.06.17-.18.26-.12.09-.29.15-.5.19-.89.15-1.51.79-1.86,1.91-.36,1.12-.55,2.65-.57,4.6-.02,1.21-.03,2.91-.03,5.11,0,.76-.02,2.25-.06,4.5-.04,2.85-.06,5.23-.06,7.15,0,.45-.09.68-.26.68-.15,0-.3-.15-.45-.45-1.23-2.27-3.27-5.77-6.12-10.52-2.85-4.75-4.6-7.61-5.24-8.58-.22-.32-.39-.49-.52-.49-.11,0-.16.16-.16.49v10.78c0,1.79.1,3.2.31,4.22.2,1.02.55,1.8,1.04,2.31.49.52,1.16.85,2.02,1,.22.02.38.08.5.18.12.1.18.19.18.27,0,.11-.06.19-.18.26-.12.07-.29.09-.5.07l-1.42-.1c-1.34-.09-2.15-.13-2.43-.13-.37,0-.8.03-1.29.1-.78.09-1.39.13-1.84.13-.24,0-.42-.03-.55-.1Z"/>
        <path class="cls-2" d="M80.23,203.18c-1.31-1.24-1.96-3.3-1.96-6.17,0-2.72-.01-5.31-.03-7.77-.02-2.46-.04-4.26-.06-5.41-.02-.97-.22-1.66-.6-2.06-.38-.4-1-.65-1.86-.76-.24-.02-.42-.07-.55-.15-.13-.08-.19-.16-.19-.24,0-.11.06-.19.19-.26.13-.06.31-.1.55-.1.45,0,.84.01,1.17.03.32.02.6.04.84.06.99.09,1.76.13,2.3.13,1.06,0,2.19-.04,3.4-.13l1.2-.1h.06c.19,0,.34.03.45.1.11.07.16.14.16.23s-.06.17-.18.26c-.12.09-.29.14-.5.16-1.01.15-1.74.46-2.17.94-.43.47-.66,1.1-.68,1.88-.09,4.4-.13,8.3-.13,11.69v1.36c.02,2.2.45,3.85,1.29,4.95.84,1.1,2.08,1.65,3.72,1.65,1.49,0,2.71-.54,3.66-1.63.95-1.09,1.42-2.85,1.42-5.29s-.02-5.36-.06-8.84c-.02-2.29-.29-3.94-.81-4.97-.52-1.02-1.26-1.6-2.23-1.73-.24-.02-.42-.08-.53-.16-.12-.09-.18-.17-.18-.26s.06-.16.19-.23c.13-.06.3-.1.52-.1.58,0,1.33.04,2.23.13.52.06.96.1,1.33.1.63,0,1.77-.08,3.43-.23h.13c.17,0,.31.03.4.08.1.05.15.12.15.21,0,.22-.23.38-.68.49-1.01.17-1.75.77-2.22,1.8-.46,1.03-.7,2.64-.7,4.84v8.67c0,2.94-.61,5.11-1.83,6.54-1.22,1.42-2.92,2.14-5.1,2.14-2.4,0-4.25-.62-5.55-1.86Z"/>
        <path class="cls-2" d="M97.76,204.46c-.13-.06-.19-.15-.19-.26,0-.09.06-.17.18-.26.12-.09.3-.14.53-.16.88-.09,1.51-.34,1.88-.76.37-.42.57-1.07.62-1.96.06-1.4.1-4.19.1-8.35,0-5.01-.03-8-.1-8.97-.02-.91-.22-1.55-.6-1.93-.38-.38-1-.62-1.86-.73-.24-.02-.42-.08-.55-.16s-.19-.17-.19-.26c0-.11.07-.19.19-.26.13-.07.31-.1.55-.1.54,0,1.08.03,1.62.1.95.09,1.76.13,2.43.13,1.17,0,2.72-.05,4.66-.16.78-.06,1.46-.1,2.04-.1,1.12,0,2.17.11,3.14.32.54.13.86.58.97,1.36.15,1.47.29,3.04.42,4.73v.07c0,.45-.11.68-.32.68-.15,0-.29-.17-.42-.52-.6-1.73-1.34-3.12-2.2-4.18-.86-1.06-2.02-1.59-3.46-1.59-1.04,0-1.76.22-2.19.66-.42.44-.64,1.1-.66,1.96-.06,2.98-.1,5.2-.1,6.67,0,.5.11.85.32,1.05.22.21.58.31,1.1.31.91-.02,1.51-.05,1.81-.1,1.55-.19,2.47-1.24,2.75-3.14.02-.24.08-.42.16-.55.09-.13.17-.19.26-.19s.16.07.21.19c.05.13.08.31.08.55,0,.47-.05,1.34-.16,2.59l-.06,1.1c0,.45.08,1.71.23,3.79v.1c0,.17-.03.31-.08.4-.05.1-.12.15-.21.15s-.17-.05-.26-.16c-.09-.11-.14-.27-.16-.49-.3-2.09-1.21-3.19-2.72-3.3-.63-.04-1.25-.06-1.88-.06-.52,0-.89.11-1.1.32-.22.22-.32.59-.32,1.13,0,2.94.04,5.23.13,6.89.04.84.28,1.5.71,1.97.43.47,1.18.71,2.23.71,1.53,0,2.9-.41,4.11-1.25,1.21-.83,2.23-1.86,3.08-3.09.32-.45.58-.68.78-.68.13,0,.19.12.19.36,0,.13-.03.31-.1.55-.37,1.36-.7,2.37-.99,3.04s-.68,1.15-1.17,1.46c-.49.3-1.16.45-2.02.45-2.31,0-4.2-.04-5.66-.13-.8-.07-1.8-.1-3.01-.1-.67,0-1.48.04-2.43.13-.22.02-.47.04-.76.07-.29.02-.63.03-1.02.03-.22,0-.39-.03-.52-.1Z"/>
      </g>
    </g>
  </g>
</svg>