{
	"asset":{
		"version":"2.0",
		"generator":"Maxon Cinema 4D 2025.0.0 (#200000219)"
	},
	"scenes":[{
		"nodes":[0,
		1]
	}],
	"nodes":[{
		"name":"Bottle",
		"mesh":0,
		"translation":[0.0,
		0.0,
		0.0],
		"rotation":[-0.7071067690849304,
		0.0,
		0.0,
		-0.7071067690849304],
		"scale":[1.0,
		1.0,
		1.0]
	},
	{
		"name":"Cap",
		"mesh":1,
		"translation":[0.0,
		3.3677788446092119e-17,
		0.5600000023841858],
		"rotation":[-0.7071067690849304,
		0.0,
		0.0,
		-0.7071067690849304],
		"scale":[1.0,
		1.0,
		1.0]
	}],
	"meshes":[{
		"name":"Bottle",
		"primitives":[{
			"attributes":{
				"POSITION":1,
				"NORMAL":2,
				"TEXCOORD_0":3
			},
			"indices":0,
			"material":0
		}]
	},
	{
		"name":"Cap",
		"primitives":[{
			"attributes":{
				"POSITION":5,
				"NORMAL":6,
				"TEXCOORD_0":7
			},
			"indices":4,
			"material":1
		}]
	}],
	"accessors":[{
		"bufferView":0,
		"type":"SCALAR",
		"componentType":5123,
		"count":384,
		"byteOffset":0,
		"min":[0],
		"max":[383]
	},
	{
		"bufferView":1,
		"type":"VEC3",
		"componentType":5126,
		"count":384,
		"byteOffset":0,
		"min":[-0.08998993039131165,
		-0.44999998807907107,
		-0.08998993039131165],
		"max":[0.08998993039131165,
		0.44999998807907107,
		0.08998993039131165]
	},
	{
		"bufferView":1,
		"type":"VEC3",
		"componentType":5126,
		"count":384,
		"byteOffset":12,
		"min":[-0.9998408555984497,
		-1.0,
		-0.9998408555984497],
		"max":[0.9998408555984497,
		1.0,
		0.9998408555984497]
	},
	{
		"bufferView":1,
		"type":"VEC2",
		"componentType":5126,
		"count":384,
		"byteOffset":24,
		"min":[0.009803921915590763,
		0.009803920984268189],
		"max":[0.9901960492134094,
		0.9901959896087647]
	},
	{
		"bufferView":2,
		"type":"SCALAR",
		"componentType":5123,
		"count":384,
		"byteOffset":0,
		"min":[0],
		"max":[383]
	},
	{
		"bufferView":3,
		"type":"VEC3",
		"componentType":5126,
		"count":384,
		"byteOffset":0,
		"min":[-0.09000000357627869,
		-0.10999999940395355,
		-0.09000000357627869],
		"max":[0.09000000357627869,
		0.10999999940395355,
		0.09000000357627869]
	},
	{
		"bufferView":3,
		"type":"VEC3",
		"componentType":5126,
		"count":384,
		"byteOffset":12,
		"min":[-0.9994615912437439,
		-1.0,
		-0.9994615912437439],
		"max":[0.9994615912437439,
		1.0,
		0.9994615912437439]
	},
	{
		"bufferView":3,
		"type":"VEC2",
		"componentType":5126,
		"count":384,
		"byteOffset":24,
		"min":[0.0011035535717383028,
		0.0011035534553229809],
		"max":[0.9496054649353027,
		0.9988963603973389]
	}],
	"bufferViews":[{
		"buffer":0,
		"byteOffset":0,
		"byteLength":768,
		"target":34963
	},
	{
		"buffer":0,
		"byteOffset":768,
		"byteLength":12288,
		"target":34962,
		"byteStride":32
	},
	{
		"buffer":1,
		"byteOffset":0,
		"byteLength":768,
		"target":34963
	},
	{
		"buffer":1,
		"byteOffset":768,
		"byteLength":12288,
		"target":34962,
		"byteStride":32
	}],
	"buffers":[{
		"uri":"data:application/octet-stream;base64,",
		"byteLength":13056
	},
	{
		"uri":"data:application/octet-stream;base64,",
		"byteLength":13056
	}],
	"materials":[{
		"pbrMetallicRoughness":{
			"baseColorFactor":[0.7999999999999999,
			0.7999999999999999,
			0.7999999999999999,
			1.0],
			"metallicFactor":0.0,
			"roughnessFactor":0.20000000298023225
		},
		"emissiveFactor":[0.0,
		0.0,
		0.0],
		"alphaMode":"OPAQUE",
		"doubleSided":false,
		"name":"RS Standard"
	},
	{
		"pbrMetallicRoughness":{
			"baseColorFactor":[0.0,
			0.0,
			0.0,
			1.0],
			"metallicFactor":0.0,
			"roughnessFactor":0.0
		},
		"emissiveFactor":[0.0,
		0.0,
		0.0],
		"alphaMode":"OPAQUE",
		"doubleSided":false,
		"name":"RS Material.1"
	}]
}